<?xml version="1.0" encoding="UTF-8"?>
<svg width="24px" height="24px" viewBox="0 0 24 24" version="1.1" xmlns="http://www.w3.org/2000/svg" xmlns:xlink="http://www.w3.org/1999/xlink">
    <!-- Generator: Sketch 47.1 (45422) - http://www.bohemiancoding.com/sketch -->
    <title>L1/icon/create_b</title>
    <desc>Created with Sketch.</desc>
    <defs></defs>
    <g id="Symbols" stroke="none" stroke-width="1" fill="none" fill-rule="evenodd">
        <g id="L1/icon/create_b" fill="#2E2E2E">
            <path d="M3.85956903,17.4654158 L14.1987729,7.08902059 L16.851758,9.7482043 L6.50015706,20.1060038 L3.85956903,20.1060038 L3.85956903,17.4654158 Z M17.0315163,4.24387997 L19.6968986,6.90926225 L18.172052,8.43410885 L15.5128683,5.77492514 L17.0315163,4.24387997 Z M2.92978452,21.9655728 L6.88446799,21.9655728 C7.13241053,21.9655728 7.36795594,21.8663958 7.54151572,21.6928361 L21.6680418,7.56630997 C21.8416016,7.3927502 21.9407786,7.15100622 21.9407786,6.90926225 C21.9407786,6.66131971 21.8416016,6.4257743 21.6680418,6.25221452 L17.6885641,2.27273679 C17.5150043,2.09917702 17.2794589,2 17.0315163,2 C16.7835738,2 16.5480284,2.09917702 16.3744686,2.27273679 L2.27273679,16.4240571 C2.09917702,16.6038155 2,16.8393609 2,17.0811049 L2,21.0357883 C2,21.5502691 2.41530375,21.9655728 2.92978452,21.9655728 L2.92978452,21.9655728 Z" id="7H"></path>
        </g>
    </g>
</svg>