<?xml version="1.0" encoding="UTF-8"?>
<svg width="24px" height="24px" viewBox="0 0 24 24" version="1.1" xmlns="http://www.w3.org/2000/svg" xmlns:xlink="http://www.w3.org/1999/xlink">
    <!-- Generator: Sketch 47.1 (45422) - http://www.bohemiancoding.com/sketch -->
    <title>L1/icon/fullscreen_b</title>
    <desc>Created with Sketch.</desc>
    <defs></defs>
    <g id="Symbols" stroke="none" stroke-width="1" fill="none" fill-rule="evenodd">
        <g id="L1/icon/fullscreen_b" fill="#2E2E2E">
            <path d="M15,6 L15,4 L9,4 L9,6 L6,6 L6,9 L4,9 L4,15 L6,15 L6,18 L9,18 L9,20 L15,20 L15,18 L18,18 L18,15 L20,15 L20,9 L18,9 L18,6 L15,6 Z M6,4 L18,4 C19.1045695,4 20,4.8954305 20,6 L20,18 C20,19.1045695 19.1045695,20 18,20 L6,20 C4.8954305,20 4,19.1045695 4,18 L4,6 L4,6 C4,4.8954305 4.8954305,4 6,4 L6,4 Z" id="Rectangle"></path>
        </g>
    </g>
</svg>