<?xml version="1.0" encoding="UTF-8"?>
<svg width="24px" height="24px" viewBox="0 0 24 24" version="1.1" xmlns="http://www.w3.org/2000/svg" xmlns:xlink="http://www.w3.org/1999/xlink">
    <!-- Generator: Sketch 47.1 (45422) - http://www.bohemiancoding.com/sketch -->
    <title>L1/icon/play_b</title>
    <desc>Created with Sketch.</desc>
    <defs></defs>
    <g id="Symbols" stroke="none" stroke-width="1" fill="none" fill-rule="evenodd">
        <g id="L1/icon/play_b" fill-rule="nonzero" fill="#2E2E2E">
            <path d="M12,23 C5.92486775,23 1,18.0751322 1,12 C1,5.92486775 5.92486775,1 12,1 C18.0751322,1 23,5.92486775 23,12 C23,18.0751322 18.0751322,23 12,23 Z M12,21 C16.9705627,21 21,16.9705627 21,12 C21,7.02943725 16.9705627,3 12,3 C7.02943725,3 3,7.02943725 3,12 C3,16.9705627 7.02943725,21 12,21 Z" id="Oval-8"></path>
            <path d="M13.0006169,9.9796029 L9.96753836,15.0347338 L16.0336955,15.0347338 L13.0006169,9.9796029 Z M13.8581098,7.52145652 L18.6573788,15.5202381 C19.0572935,16.1867626 18.5771803,17.0347338 17.7998859,17.0347338 L8.20134798,17.0347338 C7.4240535,17.0347338 6.94394034,16.1867626 7.34385505,15.5202381 L12.143124,7.52145652 C12.5315274,6.87411752 13.4697064,6.87411752 13.8581098,7.52145652 Z" id="Triangle-3" transform="translate(13.000617, 12.035343) rotate(90.000000) translate(-13.000617, -12.035343) "></path>
        </g>
    </g>
</svg>