<?xml version="1.0" encoding="UTF-8"?>
<svg width="24px" height="24px" viewBox="0 0 24 24" version="1.1" xmlns="http://www.w3.org/2000/svg" xmlns:xlink="http://www.w3.org/1999/xlink">
    <!-- Generator: Sketch 47.1 (45422) - http://www.bohemiancoding.com/sketch -->
    <title>L1/icon/reset_b</title>
    <desc>Created with Sketch.</desc>
    <defs></defs>
    <g id="Symbols" stroke="none" stroke-width="1" fill="none" fill-rule="evenodd">
        <g id="L1/icon/reset_b" fill-rule="nonzero" fill="#2E2E2E">
            <path d="M18.8699622,11.7966199 C18.5380639,7.43519194 14.8934122,4 10.446496,4 C5.78112999,4 2,7.78112999 2,12.446496 C2,17.1121011 5.78136907,20.8945945 10.446496,20.8945945 C12.2259524,20.8945945 13.9245284,20.3418423 15.3437378,19.329722 C15.9620604,18.8889736 16.5190207,18.3681677 16.9963417,17.7830645 C17.3454557,17.3551184 17.2815496,16.7251867 16.8536035,16.3760727 C16.4256573,16.0269588 15.7957257,16.0908649 15.4466117,16.518811 C15.0825112,16.9651278 14.6564432,17.3635382 14.182664,17.7012541 C13.0995108,18.4737133 11.8061668,18.8945945 10.446496,18.8945945 C6.8860717,18.8945945 4,16.0076647 4,12.446496 C4,8.88569949 6.88569949,6 10.446496,6 C13.6413612,6 16.2935589,8.32288171 16.805369,11.3716266 L15.700754,10.286597 C15.3067524,9.89958126 14.6736128,9.90524441 14.286597,10.299246 C13.8995813,10.6932476 13.9052444,11.3263872 14.299246,11.713403 L18.0542226,15.401802 L21.7008263,11.8191285 C22.0947887,11.4320728 22.1003877,10.7989326 21.713332,10.4049702 C21.3262763,10.0110079 20.6931361,10.0054089 20.2991737,10.3924645 L18.8699622,11.7966199 Z" id="Stroke-4"></path>
        </g>
    </g>
</svg>