<?xml version="1.0" encoding="UTF-8"?>
<svg width="24px" height="24px" viewBox="0 0 24 24" version="1.1" xmlns="http://www.w3.org/2000/svg" xmlns:xlink="http://www.w3.org/1999/xlink">
    <!-- Generator: Sketch 47.1 (45422) - http://www.bohemiancoding.com/sketch -->
    <title>L1/icon/serach_b</title>
    <desc>Created with Sketch.</desc>
    <defs></defs>
    <g id="Symbols" stroke="none" stroke-width="1" fill="none" fill-rule="evenodd">
        <g id="L1/icon/serach_b" fill="#2E2E2E">
            <path d="M11,18 C7.13400675,18 4,14.8659932 4,11 C4,7.13400675 7.13400675,4 11,4 C14.8659932,4 18,7.13400675 18,11 C18,14.8659932 14.8659932,18 11,18 Z M11,16 C13.7614237,16 16,13.7614237 16,11 C16,8.23857625 13.7614237,6 11,6 C8.23857625,6 6,8.23857625 6,11 C6,13.7614237 8.23857625,16 11,16 Z" id="Oval-5" fill-rule="nonzero"></path>
            <rect id="Rectangle-12" transform="translate(17.779580, 17.779580) rotate(45.000000) translate(-17.779580, -17.779580) " x="13.5798324" y="16.6341942" width="8.39949494" height="2.29077135" rx="1.14538567"></rect>
        </g>
    </g>
</svg>