<?xml version="1.0" encoding="UTF-8"?>
<svg width="24px" height="24px" viewBox="0 0 24 24" version="1.1" xmlns="http://www.w3.org/2000/svg" xmlns:xlink="http://www.w3.org/1999/xlink">
    <!-- Generator: Sketch 47.1 (45422) - http://www.bohemiancoding.com/sketch -->
    <title>L1/icon/share_b</title>
    <desc>Created with Sketch.</desc>
    <defs></defs>
    <g id="Symbols" stroke="none" stroke-width="1" fill="none" fill-rule="evenodd">
        <g id="L1/icon/share_b" fill-rule="nonzero" fill="#2E2E2E">
            <path d="M3.79854649,19.5954294 C3.5263641,20.058154 3.03227484,20.342658 2.49897751,20.342658 C2.3622991,20.342658 2.22517203,20.326291 2.12061576,20.2940941 C1.45798607,20.1218553 1,19.526363 1,18.8423854 C1,16.5809087 1.92292224,13.8736793 3.66856402,11.7456283 C5.62051633,9.36292996 8.50310713,7.74863619 12.4314928,7.39393779 L12.4314928,5.06028402 C12.4314928,4.47698581 12.7650742,3.94600774 13.2780371,3.7069998 C13.8069695,3.44801352 14.4286774,3.52766016 14.8870389,3.9003186 L22.4383342,10.1496241 C22.7965513,10.4344647 23,10.8624815 23,11.3177927 C23,11.7630788 22.8018981,12.1901034 22.458419,12.4729716 L14.8865623,18.7527652 C14.4396432,19.1261645 13.8161766,19.2021417 13.2910714,18.9572727 C12.7612304,18.7101954 12.4274029,18.175375 12.4274029,17.5958043 L12.4274029,15.354225 C8.15313113,15.5000268 5.53268,16.5314543 3.79854649,19.5954294 Z M21.1784008,11.7027456 L21.1658857,11.6923887 C21.1700004,11.6959397 21.1741726,11.6993931 21.1784008,11.7027456 Z M21.1843193,10.9313303 C21.1833797,10.9321041 21.1824435,10.9328805 21.1815106,10.9336597 L21.1843193,10.9313303 Z M14.4314928,6.11931231 L14.4314928,9.29663136 L13.4680657,9.33189019 C9.63470451,9.47218082 6.97029045,10.8712711 5.21528159,13.0135653 C4.26656896,14.1701081 3.60917586,15.5394366 3.26918947,16.8554693 C5.55448112,14.1673018 8.77913733,13.3540514 13.4234814,13.3358386 L14.4274029,13.3319018 L14.4274029,16.5352459 L20.7157898,11.3199098 L14.4314928,6.11931231 Z" id="next" transform="translate(12.000000, 11.949224) scale(-1, 1) translate(-12.000000, -11.949224) "></path>
        </g>
    </g>
</svg>